# xmcd
#
# Track frame offsets: 
#        150
#        19553
#        35086
#        44681
#        55743
#        66804
#        81298
#        92504
#        103883
#        116242
#        132888
#        140801
#
# Disc length: 2104 seconds
#
# Revision: 0
# Processed by: cddbd v1.5.2PL0 Copyright (c) Steve Scherf et al.
# Submitted via: ExactAudioCopyFreeDBPlugin 1.0
#
DISCID=ad08360c
DTITLE=Brimbelle - La ferme de Foin-Foin en chansons
DYEAR=2012
DGENRE=Other
TTITLE0=Foin Foin le fermier
TTITLE1=Bingo
TTITLE2=J'ai envie
TTITLE3=Les oeufs
TTITLE4=Le rhume des foins
TTITLE5=Le pardon
TTITLE6=Les semences
TTITLE7=Courtepaille
TTITLE8=Les bulles
TTITLE9=Les besognes de la ferme
TTITLE10=La collation
TTITLE11=Dodo, petit ange
EXTD=
EXTT0=
EXTT1=
EXTT2=
EXTT3=
EXTT4=
EXTT5=
EXTT6=
EXTT7=
EXTT8=
EXTT9=
EXTT10=
EXTT11=
PLAYORDER=
